<svg viewBox="0 0 1200 675" width="1200" height="675" xmlns="http://www.w3.org/2000/svg" role="img">
<rect width="1200" height="675" fill="#FAF9FC"/>


<polygon points="744,0 1200,0 1200,675 408.00000000000006,675" fill="#F0EBFF" opacity="0.55"/>
<circle cx="60" cy="60" r="2" fill="#E9E5F2"/>
<circle cx="198" cy="60" r="2" fill="#E9E5F2"/>
<circle cx="336" cy="60" r="2" fill="#E9E5F2"/>
<circle cx="474" cy="60" r="2" fill="#E9E5F2"/>
<circle cx="612" cy="60" r="2" fill="#E9E5F2"/>
<circle cx="152" cy="106" r="2" fill="#E9E5F2"/>
<circle cx="290" cy="106" r="2" fill="#E9E5F2"/>
<circle cx="428" cy="106" r="2" fill="#E9E5F2"/>
<circle cx="566" cy="106" r="2" fill="#E9E5F2"/>
<circle cx="106" cy="152" r="2" fill="#E9E5F2"/>
<circle cx="244" cy="152" r="2" fill="#E9E5F2"/>
<circle cx="382" cy="152" r="2" fill="#E9E5F2"/>
<circle cx="520" cy="152" r="2" fill="#E9E5F2"/>
<circle cx="658" cy="152" r="2" fill="#E9E5F2"/>
<circle cx="60" cy="198" r="2" fill="#E9E5F2"/>
<circle cx="198" cy="198" r="2" fill="#E9E5F2"/>
<circle cx="336" cy="198" r="2" fill="#E9E5F2"/>
<circle cx="474" cy="198" r="2" fill="#E9E5F2"/>
<circle cx="612" cy="198" r="2" fill="#E9E5F2"/>
<circle cx="152" cy="244" r="2" fill="#E9E5F2"/>
<circle cx="290" cy="244" r="2" fill="#E9E5F2"/>
<circle cx="428" cy="244" r="2" fill="#E9E5F2"/>
<circle cx="566" cy="244" r="2" fill="#E9E5F2"/>
<circle cx="106" cy="290" r="2" fill="#E9E5F2"/>
<circle cx="244" cy="290" r="2" fill="#E9E5F2"/>
<circle cx="382" cy="290" r="2" fill="#E9E5F2"/>
<circle cx="520" cy="290" r="2" fill="#E9E5F2"/>
<circle cx="658" cy="290" r="2" fill="#E9E5F2"/>
<circle cx="60" cy="336" r="2" fill="#E9E5F2"/>
<circle cx="198" cy="336" r="2" fill="#E9E5F2"/>
<circle cx="336" cy="336" r="2" fill="#E9E5F2"/>
<circle cx="474" cy="336" r="2" fill="#E9E5F2"/>
<circle cx="612" cy="336" r="2" fill="#E9E5F2"/>
<circle cx="152" cy="382" r="2" fill="#E9E5F2"/>
<circle cx="290" cy="382" r="2" fill="#E9E5F2"/>
<circle cx="428" cy="382" r="2" fill="#E9E5F2"/>
<circle cx="566" cy="382" r="2" fill="#E9E5F2"/>


<circle cx="210" cy="337.5" r="130" fill="#FFFFFF" stroke="#E9E5F2" stroke-width="2"/>
<circle cx="210" cy="337.5" r="120" fill="#F0EBFF"/>
<g transform="translate(150 277.5)" stroke="#6D3DF5" stroke-width="6" stroke-linecap="round" stroke-linejoin="round" fill="none">

    <rect x="8" y="18" width="88" height="66" rx="6"/>
    <line x1="8" y1="34" x2="96" y2="34"/>
    <circle cx="20" cy="26" r="2.4" fill="#6D3DF5" stroke="none"/>
    <circle cx="30" cy="26" r="2.4" fill="#6D3DF5" stroke="none"/>
    <circle cx="40" cy="26" r="2.4" fill="#6D3DF5" stroke="none"/>
    <line x1="24" y1="50" x2="80" y2="50"/>
    <line x1="24" y1="62" x2="64" y2="62"/>
  
</g>
<text x="90" y="605" font-family="Arial, Helvetica, sans-serif" font-size="30" font-weight="700" fill="#17151F">Website Development</text>
<rect x="90" y="635" width="120" height="6" rx="3" fill="#6D3DF5"/>

</svg>